<svg id="visual" viewBox="0 0 900 450" width="900" height="450" xmlns="http://www.w3.org/2000/svg" xmlns:xlink="http://www.w3.org/1999/xlink" version="1.1"><rect x="0" y="0" width="900" height="450" fill="#001220"></rect><path d="M0 303L21.5 301.5C43 300 86 297 128.8 297.8C171.7 298.7 214.3 303.3 257.2 305.8C300 308.3 343 308.7 385.8 313C428.7 317.3 471.3 325.7 514.2 320.7C557 315.7 600 297.3 642.8 292C685.7 286.7 728.3 294.3 771.2 292.2C814 290 857 278 878.5 272L900 266L900 451L878.5 451C857 451 814 451 771.2 451C728.3 451 685.7 451 642.8 451C600 451 557 451 514.2 451C471.3 451 428.7 451 385.8 451C343 451 300 451 257.2 451C214.3 451 171.7 451 128.8 451C86 451 43 451 21.5 451L0 451Z" fill="#eb8000"></path><path d="M0 346L21.5 338.5C43 331 86 316 128.8 307.5C171.7 299 214.3 297 257.2 306.5C300 316 343 337 385.8 347C428.7 357 471.3 356 514.2 350.8C557 345.7 600 336.3 642.8 333.5C685.7 330.7 728.3 334.3 771.2 332.7C814 331 857 324 878.5 320.5L900 317L900 451L878.5 451C857 451 814 451 771.2 451C728.3 451 685.7 451 642.8 451C600 451 557 451 514.2 451C471.3 451 428.7 451 385.8 451C343 451 300 451 257.2 451C214.3 451 171.7 451 128.8 451C86 451 43 451 21.5 451L0 451Z" fill="#c35914"></path><path d="M0 340L21.5 340.2C43 340.3 86 340.7 128.8 340.2C171.7 339.7 214.3 338.3 257.2 344.3C300 350.3 343 363.7 385.8 370C428.7 376.3 471.3 375.7 514.2 369C557 362.3 600 349.7 642.8 344C685.7 338.3 728.3 339.7 771.2 342.3C814 345 857 349 878.5 351L900 353L900 451L878.5 451C857 451 814 451 771.2 451C728.3 451 685.7 451 642.8 451C600 451 557 451 514.2 451C471.3 451 428.7 451 385.8 451C343 451 300 451 257.2 451C214.3 451 171.7 451 128.8 451C86 451 43 451 21.5 451L0 451Z" fill="#983617"></path><path d="M0 363L21.5 369.7C43 376.3 86 389.7 128.8 394.3C171.7 399 214.3 395 257.2 388.8C300 382.7 343 374.3 385.8 373.5C428.7 372.7 471.3 379.3 514.2 385.7C557 392 600 398 642.8 398.2C685.7 398.3 728.3 392.7 771.2 386.8C814 381 857 375 878.5 372L900 369L900 451L878.5 451C857 451 814 451 771.2 451C728.3 451 685.7 451 642.8 451C600 451 557 451 514.2 451C471.3 451 428.7 451 385.8 451C343 451 300 451 257.2 451C214.3 451 171.7 451 128.8 451C86 451 43 451 21.5 451L0 451Z" fill="#6a1812"></path><path d="M0 426L21.5 424.2C43 422.3 86 418.7 128.8 417.8C171.7 417 214.3 419 257.2 419.2C300 419.3 343 417.7 385.8 418.5C428.7 419.3 471.3 422.7 514.2 419.3C557 416 600 406 642.8 401.3C685.7 396.7 728.3 397.3 771.2 397.3C814 397.3 857 396.7 878.5 396.3L900 396L900 451L878.5 451C857 451 814 451 771.2 451C728.3 451 685.7 451 642.8 451C600 451 557 451 514.2 451C471.3 451 428.7 451 385.8 451C343 451 300 451 257.2 451C214.3 451 171.7 451 128.8 451C86 451 43 451 21.5 451L0 451Z" fill="#3e0000"></path></svg>