<?xml version="1.0" encoding="UTF-8"?>
<svg id="uuid-8c22f237-41d0-47a8-87f0-07a5e09d76e1" data-name="Layer 1" xmlns="http://www.w3.org/2000/svg" viewBox="0 0 502.13 456.49">
  <defs>
    <style>
      .uuid-ed49e19f-d1c4-43fb-9280-ef92f176b0ff {
        fill: #9dcf77;
        stroke: #1d2318;
      }

      .uuid-ed49e19f-d1c4-43fb-9280-ef92f176b0ff, .uuid-0783b6d3-dd99-42df-99c0-e2b3d827756e, .uuid-327b95b6-0140-4ad4-a854-05459199c9fc, .uuid-34592cf1-cde3-45a9-8b59-187310ae11a9 {
        stroke-linecap: round;
        stroke-linejoin: round;
      }

      .uuid-ed49e19f-d1c4-43fb-9280-ef92f176b0ff, .uuid-0783b6d3-dd99-42df-99c0-e2b3d827756e, .uuid-34592cf1-cde3-45a9-8b59-187310ae11a9 {
        stroke-width: 17px;
      }

      .uuid-0783b6d3-dd99-42df-99c0-e2b3d827756e {
        fill: #edebeb;
        stroke: #282223;
      }

      .uuid-327b95b6-0140-4ad4-a854-05459199c9fc {
        fill: none;
        stroke: #2d2d2d;
        stroke-width: 32px;
      }

      .uuid-34592cf1-cde3-45a9-8b59-187310ae11a9 {
        fill: #5f4a2a;
        stroke: #282022;
      }
    </style>
  </defs>
  <path class="uuid-0783b6d3-dd99-42df-99c0-e2b3d827756e" d="m106.19,392.59V102.85S112.88,8.5,249.58,8.5s146.36,95.84,146.36,95.84v288.25H106.19Z"/>
  <g>
    <line class="uuid-327b95b6-0140-4ad4-a854-05459199c9fc" x1="251.06" y1="93.73" x2="251.06" y2="269.25"/>
    <line class="uuid-327b95b6-0140-4ad4-a854-05459199c9fc" x1="214.66" y1="130.97" x2="287.47" y2="130.97"/>
  </g>
  <path class="uuid-34592cf1-cde3-45a9-8b59-187310ae11a9" d="m400.02,447.43s93.61,10.47,93.61-59.57c0-95.8-118.87-49.03-118.87-49.03,0,0-25.26-23.77-119.61-23.77s-103.27,24.52-103.27,24.52c-35.66-35.66-143.38-21.54-143.38,46.06s98.07,61.66,98.07,61.66l157.73.07,135.72.06Z"/>
  <path class="uuid-ed49e19f-d1c4-43fb-9280-ef92f176b0ff" d="m90.65,351.89s-39.67-25.55-27.39-53.2c12.28-27.65,63.24,13.22,63.24,13.22,0,0,43.51,56.1-35.85,39.98Z"/>
  <path class="uuid-ed49e19f-d1c4-43fb-9280-ef92f176b0ff" d="m114.06,311s15.04-44.72,44.86-39.6c29.82,5.13,2.69,64.55,2.69,64.55,0,0-43.71,55.94-47.55-24.95Z"/>
  <path class="uuid-ed49e19f-d1c4-43fb-9280-ef92f176b0ff" d="m386.14,308.19s15.04-44.72,44.86-39.6c29.82,5.13,2.69,64.55,2.69,64.55,0,0-43.71,55.94-47.55-24.95Z"/>
  <path class="uuid-ed49e19f-d1c4-43fb-9280-ef92f176b0ff" d="m350.77,328.67s-11.39-40.38,13.2-49.31c24.59-8.94,34.46,47.78,34.46,47.78,0,0-4.13,61.21-47.65,1.53Z"/>
</svg>