<svg id="visual" viewBox="0 0 1920 600" width="1920" height="600" xmlns="http://www.w3.org/2000/svg" xmlns:xlink="http://www.w3.org/1999/xlink" version="1.1"><path d="M0 489L32 490.5C64 492 128 495 192 498.5C256 502 320 506 384 502.5C448 499 512 488 576 478.7C640 469.3 704 461.7 768 466.7C832 471.7 896 489.3 960 498.3C1024 507.3 1088 507.7 1152 497.2C1216 486.7 1280 465.3 1344 462.5C1408 459.7 1472 475.3 1536 478C1600 480.7 1664 470.3 1728 466.8C1792 463.3 1856 466.7 1888 468.3L1920 470L1920 601L1888 601C1856 601 1792 601 1728 601C1664 601 1600 601 1536 601C1472 601 1408 601 1344 601C1280 601 1216 601 1152 601C1088 601 1024 601 960 601C896 601 832 601 768 601C704 601 640 601 576 601C512 601 448 601 384 601C320 601 256 601 192 601C128 601 64 601 32 601L0 601Z" fill="#ffc100" stroke-linecap="round" stroke-linejoin="miter"></path></svg>