<svg id="visual" viewBox="0 0 1000 450" width="1000" height="450" xmlns="http://www.w3.org/2000/svg" xmlns:xlink="http://www.w3.org/1999/xlink" version="1.1"><path d="M0 303L23.8 301.5C47.7 300 95.3 297 143 297.8C190.7 298.7 238.3 303.3 286 305.8C333.7 308.3 381.3 308.7 428.8 313C476.3 317.3 523.7 325.7 571.2 320.7C618.7 315.7 666.3 297.3 714 292C761.7 286.7 809.3 294.3 857 292.2C904.7 290 952.3 278 976.2 272L1000 266L1000 451L976.2 451C952.3 451 904.7 451 857 451C809.3 451 761.7 451 714 451C666.3 451 618.7 451 571.2 451C523.7 451 476.3 451 428.8 451C381.3 451 333.7 451 286 451C238.3 451 190.7 451 143 451C95.3 451 47.7 451 23.8 451L0 451Z" fill="#eb8000"></path><path d="M0 346L23.8 338.5C47.7 331 95.3 316 143 307.5C190.7 299 238.3 297 286 306.5C333.7 316 381.3 337 428.8 347C476.3 357 523.7 356 571.2 350.8C618.7 345.7 666.3 336.3 714 333.5C761.7 330.7 809.3 334.3 857 332.7C904.7 331 952.3 324 976.2 320.5L1000 317L1000 451L976.2 451C952.3 451 904.7 451 857 451C809.3 451 761.7 451 714 451C666.3 451 618.7 451 571.2 451C523.7 451 476.3 451 428.8 451C381.3 451 333.7 451 286 451C238.3 451 190.7 451 143 451C95.3 451 47.7 451 23.8 451L0 451Z" fill="#c35914"></path><path d="M0 340L23.8 340.2C47.7 340.3 95.3 340.7 143 340.2C190.7 339.7 238.3 338.3 286 344.3C333.7 350.3 381.3 363.7 428.8 370C476.3 376.3 523.7 375.7 571.2 369C618.7 362.3 666.3 349.7 714 344C761.7 338.3 809.3 339.7 857 342.3C904.7 345 952.3 349 976.2 351L1000 353L1000 451L976.2 451C952.3 451 904.7 451 857 451C809.3 451 761.7 451 714 451C666.3 451 618.7 451 571.2 451C523.7 451 476.3 451 428.8 451C381.3 451 333.7 451 286 451C238.3 451 190.7 451 143 451C95.3 451 47.7 451 23.8 451L0 451Z" fill="#983617"></path><path d="M0 363L23.8 369.7C47.7 376.3 95.3 389.7 143 394.3C190.7 399 238.3 395 286 388.8C333.7 382.7 381.3 374.3 428.8 373.5C476.3 372.7 523.7 379.3 571.2 385.7C618.7 392 666.3 398 714 398.2C761.7 398.3 809.3 392.7 857 386.8C904.7 381 952.3 375 976.2 372L1000 369L1000 451L976.2 451C952.3 451 904.7 451 857 451C809.3 451 761.7 451 714 451C666.3 451 618.7 451 571.2 451C523.7 451 476.3 451 428.8 451C381.3 451 333.7 451 286 451C238.3 451 190.7 451 143 451C95.3 451 47.7 451 23.8 451L0 451Z" fill="#6a1812"></path><path d="M0 426L23.8 424.2C47.7 422.3 95.3 418.7 143 417.8C190.7 417 238.3 419 286 419.2C333.7 419.3 381.3 417.7 428.8 418.5C476.3 419.3 523.7 422.7 571.2 419.3C618.7 416 666.3 406 714 401.3C761.7 396.7 809.3 397.3 857 397.3C904.7 397.3 952.3 396.7 976.2 396.3L1000 396L1000 451L976.2 451C952.3 451 904.7 451 857 451C809.3 451 761.7 451 714 451C666.3 451 618.7 451 571.2 451C523.7 451 476.3 451 428.8 451C381.3 451 333.7 451 286 451C238.3 451 190.7 451 143 451C95.3 451 47.7 451 23.8 451L0 451Z" fill="#3e0000"></path></svg>