<svg width="2172" height="496" viewBox="0 0 2172 496" fill="none" xmlns="http://www.w3.org/2000/svg">
<rect width="2172" height="496" fill="#1E1E1E"/>
<g id="Frame 1" clip-path="url(#clip0_0_1)">
<g id="Group 3">
<g id="Group 1">
<g id="Vector 2">
<path d="M222.5 156C154.9 132.8 53.3333 158 11 173.5H0V523L925.5 539.5C918 522.667 903.5 478.5 905.5 436.5C908 384 849 349.5 787 338C725 326.5 636.5 362 592.5 338C548.5 314 530.5 212.5 468 198.5C418 187.3 345.5 214.167 315.5 229C312.667 214.333 290.1 179.2 222.5 156Z" fill="#C6E691"/>
<path d="M207 298C207 298 241 307 252.5 298C263.673 289.256 255.784 285.183 267.5 282C282.762 277.853 294.2 308.2 311 303M380.5 454C384.5 457.333 397.2 464 416 464C434.8 464 429.632 450.075 441 446.5C458.61 440.962 476.3 466.2 487.5 455M709.5 415C714.667 422.333 731.2 435.7 756 430.5C780.8 425.3 769.753 414.255 782 410.5C798.989 405.291 804.9 424 826.5 420M11 173.5C53.3333 158 154.9 132.8 222.5 156C290.1 179.2 312.667 214.333 315.5 229C345.5 214.167 418 187.3 468 198.5C530.5 212.5 548.5 314 592.5 338C636.5 362 725 326.5 787 338C849 349.5 908 384 905.5 436.5C903.5 478.5 918 522.667 925.5 539.5L0 523V173.5H11Z" stroke="#250F0F" stroke-width="10" stroke-linecap="round"/>
</g>
<g id="Vector 3">
<path d="M94.6325 398.425C95.4751 397.237 98.5531 394.087 100.162 392.709C100.991 389.057 108.429 385.023 111.487 381.76C116.233 379.548 122.112 378.861 126.751 377.182C132.297 375.176 138.956 371.344 144.966 370.22C147.401 371.121 155.83 370.692 158.241 372.557C158.241 372.557 161.239 370.823 164.071 370.47C166.903 370.118 160.367 381.542 160.367 381.542C161.176 386.345 159.889 392 158.223 397.815C156.006 405.551 152.05 413.314 141.088 417.238C130.627 420.982 124.314 417.275 118.031 413.03C113.483 409.958 107.979 407.399 105.588 403.364C101.702 402.244 93.7898 399.612 94.6325 398.425Z" fill="#AD3737"/>
<path d="M102.624 397.139C101.408 396.759 100.603 396.217 100.345 395.494C100.003 394.54 99.9576 393.612 100.162 392.709M102.624 397.139C103.293 399.008 104.28 401.156 105.588 403.364M102.624 397.139C105.199 397.944 109.619 398.019 114.597 397.534C118.515 401.395 127.304 395.572 132.655 393.676C139.331 391.309 140.007 397.689 153.004 383.234C156.956 383.649 158.363 378.806 159.265 376.866M159.265 376.866C159.694 375.942 159.805 375.081 159.529 374.311C159.273 373.595 158.835 373.016 158.241 372.557M159.265 376.866C159.691 378.227 160.076 379.807 160.367 381.542M100.162 392.709C98.5531 394.087 95.4751 397.237 94.6325 398.425C93.7898 399.612 101.702 402.244 105.588 403.364M100.162 392.709C100.991 389.057 108.429 385.023 111.487 381.76C116.233 379.548 122.112 378.861 126.751 377.182C132.297 375.176 138.956 371.344 144.966 370.22C147.401 371.121 155.83 370.692 158.241 372.557M105.588 403.364C107.979 407.399 113.483 409.958 118.031 413.03C124.314 417.275 130.627 420.982 141.088 417.238C152.05 413.314 156.006 405.551 158.223 397.815C159.889 392 161.176 386.345 160.367 381.542M158.241 372.557C158.241 372.557 161.239 370.823 164.071 370.47C166.903 370.118 160.367 381.542 160.367 381.542M113.455 390.802C113.924 393.292 124.057 392.323 131.249 389.749C134.946 388.426 141.005 388.347 144.266 385.976C140.754 383.246 147.748 379.174 147.543 378.601C147.121 377.423 139.825 377.819 128.438 381.895C125.662 382.889 122.471 382.584 120.525 383.398C117.575 385.783 113.101 388.918 113.455 390.802ZM121.228 388.906C122.336 388.066 125.376 386.092 128.673 384.912C131.969 383.732 135.384 382.805 136.68 382.489C134.838 384.034 130.977 387.1 130.265 387C129.553 386.9 123.944 388.229 121.228 388.906Z" stroke="#250F0F" stroke-width="4"/>
</g>
<g id="Vector 4">
<path d="M394.448 247.665C396.058 247.987 400.716 249.711 402.875 250.735C407.017 249.911 414.589 255.72 419.354 257.372C423.812 261.245 427.22 266.984 431.08 270.992C435.694 275.784 442.7 280.883 446.617 286.556C446.808 289.478 451.121 297.963 450.307 301.304C450.307 301.304 453.471 303.595 455.134 306.35C456.798 309.105 442.029 307.621 442.029 307.621C437.452 310.659 431.037 311.931 424.282 312.885C415.295 314.156 405.482 313.646 396.406 304.157C387.744 295.101 388.663 286.895 390.15 278.474C391.226 272.378 391.333 265.534 394.392 261.217C393.761 256.701 392.837 247.342 394.448 247.665Z" fill="#AD3737"/>
<path d="M399.443 255.305C399.275 253.879 399.464 252.801 400.09 252.203C400.916 251.413 401.851 250.939 402.875 250.735M399.443 255.305C397.825 256.853 396.065 258.856 394.392 261.217M399.443 255.305C399.796 258.328 401.749 262.915 404.535 267.82C402.357 273.629 412.392 280.008 416.802 284.648C422.306 290.439 416.045 294.065 436.904 300.813C438.291 305.074 443.926 304.3 446.339 304.337M446.339 304.337C447.487 304.355 448.426 304.074 449.092 303.436C449.712 302.844 450.107 302.126 450.307 301.304M446.339 304.337C445.132 305.402 443.681 306.523 442.029 307.621M402.875 250.735C400.716 249.711 396.058 247.987 394.448 247.665C392.837 247.342 393.761 256.701 394.392 261.217M402.875 250.735C407.017 249.911 414.589 255.72 419.354 257.372C423.812 261.245 427.22 266.984 431.08 270.992C435.694 275.784 442.7 280.883 446.617 286.556C446.808 289.478 451.121 297.963 450.307 301.304M394.392 261.217C391.333 265.534 391.226 272.378 390.15 278.474C388.663 286.895 387.744 295.101 396.406 304.157C405.482 313.646 415.295 314.156 424.282 312.885C431.037 311.931 437.452 310.659 442.029 307.621M450.307 301.304C450.307 301.304 453.471 303.595 455.134 306.35C456.798 309.105 442.029 307.621 442.029 307.621M410.945 263.552C408.595 265.178 414.247 275.171 420.202 281.397C423.262 284.597 426.126 290.802 430.067 293.072C431.265 288.2 438.672 293.534 439.168 293.06C440.188 292.084 436.429 284.752 427.001 274.894C424.702 272.491 423.55 269.064 421.818 267.433C418.006 265.49 412.722 262.322 410.945 263.552ZM416.468 270.687C417.842 271.443 421.271 273.668 424.001 276.522C426.73 279.375 429.253 282.467 430.174 283.656C427.736 282.469 422.806 279.9 422.581 279.121C422.357 278.342 418.412 273.174 416.468 270.687Z" stroke="#250F0F" stroke-width="4"/>
</g>
<g id="Vector 5">
<path d="M59.938 131.049C61.4812 130.491 66.3546 129.553 68.7301 129.312C71.8436 126.464 81.3215 127.51 86.249 126.455C92.0638 127.458 97.9469 130.6 103.32 132.028C109.743 133.735 118.37 134.467 124.654 137.289C126.33 139.688 134.408 144.708 135.441 147.984C135.441 147.984 139.331 148.306 142.178 149.799C145.026 151.293 131.635 157.668 131.635 157.668C129.296 162.633 124.471 167.04 119.191 171.352C112.168 177.089 103.516 181.732 90.8481 178.319C78.7584 175.061 75.2973 167.573 72.2096 159.606C69.9745 153.838 66.524 147.933 66.9043 142.661C64.027 139.127 58.3947 131.606 59.938 131.049Z" fill="#AD3737"/>
<path d="M68.1614 134.994C67.2803 133.861 66.8839 132.842 67.1089 132.007C67.4059 130.905 67.9604 130.016 68.7301 129.312M68.1614 134.994C67.5794 137.154 67.1123 139.777 66.9043 142.661M68.1614 134.994C70.0281 137.394 74.0708 140.305 78.9904 143.055C80.1352 149.146 92.0139 149.405 98.1848 151.089C105.886 153.189 102.411 159.529 123.732 154.501C127.123 157.425 131.538 153.848 133.619 152.631M133.619 152.631C134.61 152.051 135.267 151.325 135.506 150.436C135.729 149.609 135.696 148.791 135.441 147.984M133.619 152.631C133.139 154.165 132.479 155.875 131.635 157.668M68.7301 129.312C66.3546 129.553 61.4812 130.491 59.938 131.049C58.3947 131.606 64.027 139.127 66.9043 142.661M68.7301 129.312C71.8436 126.464 81.3215 127.51 86.249 126.455C92.0638 127.458 97.9469 130.6 103.32 132.028C109.743 133.735 118.37 134.467 124.654 137.289C126.33 139.688 134.408 144.708 135.441 147.984M66.9043 142.661C66.524 147.933 69.9745 153.838 72.2096 159.606C75.2973 167.573 78.7584 175.061 90.8481 178.319C103.516 181.732 112.168 177.089 119.191 171.352C124.471 167.04 129.296 162.633 131.635 157.668M135.441 147.984C135.441 147.984 139.331 148.306 142.178 149.799C145.026 151.293 131.635 157.668 131.635 157.668M82.2602 136.089C81.0937 138.696 91.0959 144.311 99.4075 146.551C103.68 147.702 109.338 151.523 113.881 151.424C112.384 146.64 121.476 147.365 121.654 146.703C122.021 145.342 115.013 141.02 101.853 137.474C98.6448 136.61 95.8868 134.276 93.5619 133.78C89.299 134.092 83.1424 134.118 82.2602 136.089ZM90.6736 139.33C92.2389 139.265 96.3218 139.391 100.131 140.418C103.941 141.444 107.698 142.781 109.1 143.321C106.402 143.567 100.858 143.923 100.263 143.374C99.6686 142.824 93.6224 140.449 90.6736 139.33Z" stroke="#250F0F" stroke-width="4"/>
</g>
<g id="Vector 6">
<path d="M847.032 362.058C848.745 361.439 854.154 360.398 856.791 360.13C860.247 356.968 870.768 358.13 876.238 356.959C882.693 358.072 889.223 361.56 895.188 363.145C902.318 365.04 911.894 365.853 918.87 368.986C920.73 371.648 929.696 377.221 930.844 380.857C930.844 380.857 935.161 381.214 938.322 382.872C941.484 384.53 926.618 391.606 926.618 391.606C924.022 397.119 918.666 402.011 912.806 406.797C905.009 413.165 895.406 418.319 881.343 414.53C867.923 410.914 864.081 402.601 860.654 393.757C858.173 387.356 854.342 380.8 854.765 374.948C851.571 371.025 845.319 362.677 847.032 362.058Z" fill="#AD3737"/>
<path d="M856.16 366.437C855.182 365.18 854.742 364.049 854.992 363.122C855.321 361.898 855.937 360.911 856.791 360.13M856.16 366.437C855.514 368.835 854.995 371.747 854.765 374.948M856.16 366.437C858.232 369.102 862.72 372.333 868.181 375.386C869.451 382.147 882.637 382.435 889.487 384.303C898.036 386.635 894.179 393.673 917.846 388.091C921.61 391.337 926.511 387.366 928.821 386.015M928.821 386.015C929.921 385.372 930.65 384.566 930.916 383.578C931.163 382.661 931.126 381.752 930.844 380.857M928.821 386.015C928.288 387.718 927.556 389.616 926.618 391.606M856.791 360.13C854.154 360.398 848.745 361.439 847.032 362.058C845.319 362.677 851.571 371.025 854.765 374.948M856.791 360.13C860.247 356.968 870.768 358.13 876.238 356.959C882.693 358.072 889.223 361.56 895.188 363.145C902.318 365.04 911.894 365.853 918.87 368.986C920.73 371.648 929.696 377.221 930.844 380.857M854.765 374.948C854.342 380.8 858.173 387.356 860.654 393.757C864.081 402.601 867.923 410.914 881.343 414.53C895.406 418.319 905.009 413.165 912.806 406.797C918.666 402.011 924.022 397.119 926.618 391.606M930.844 380.857C930.844 380.857 935.161 381.214 938.322 382.872C941.484 384.53 926.618 391.606 926.618 391.606M871.81 367.653C870.515 370.546 881.618 376.78 890.845 379.266C895.587 380.544 901.868 384.786 906.911 384.675C905.25 379.365 915.341 380.17 915.539 379.435C915.946 377.924 908.168 373.126 893.559 369.19C889.998 368.231 886.936 365.641 884.356 365.09C879.624 365.436 872.79 365.465 871.81 367.653ZM881.15 371.25C882.887 371.178 887.419 371.319 891.648 372.458C895.877 373.597 900.047 375.081 901.604 375.681C898.609 375.954 892.455 376.35 891.795 375.739C891.134 375.129 884.423 372.492 881.15 371.25Z" stroke="#250F0F" stroke-width="4"/>
</g>
<g id="Vector 7">
<path d="M534.946 469.793C535.729 468.809 538.517 466.28 539.958 465.199C540.877 462.002 547.399 459.1 550.177 456.468C554.316 454.942 559.319 454.893 563.336 453.835C568.138 452.57 573.989 449.775 579.129 449.347C581.13 450.391 588.27 450.82 590.193 452.726C590.193 452.726 592.828 451.46 595.239 451.417C597.65 451.375 591.445 460.995 591.445 460.995C591.838 465.383 590.411 470.333 588.654 475.389C586.316 482.118 582.509 488.701 573.02 491.163C563.965 493.512 558.86 489.576 553.813 485.16C550.16 481.963 545.669 479.136 543.894 475.283C540.682 473.904 534.163 470.778 534.946 469.793Z" fill="#AD3737"/>
<path d="M541.768 469.412C540.765 468.953 540.119 468.389 539.944 467.716C539.713 466.826 539.731 465.989 539.958 465.199M541.768 469.412C542.22 471.153 542.924 473.177 543.894 475.283M541.768 469.412C543.894 470.383 547.619 470.877 551.85 470.923C554.924 474.766 562.694 470.39 567.324 469.205C573.102 467.727 573.287 473.517 585.128 461.801C588.439 462.556 589.919 458.346 590.797 456.692M590.797 456.692C591.214 455.905 591.36 455.142 591.174 454.425C591.001 453.758 590.666 453.196 590.193 452.726M590.797 456.692C591.075 457.955 591.304 459.41 591.445 460.995M539.958 465.199C538.517 466.28 535.729 468.809 534.946 469.793C534.163 470.778 540.682 473.904 543.894 475.283M539.958 465.199C540.877 462.002 547.399 459.1 550.177 456.468C554.316 454.942 559.319 454.893 563.336 453.835C568.138 452.57 573.989 449.775 579.129 449.347C581.13 450.391 588.27 450.82 590.193 452.726M543.894 475.283C545.669 479.136 550.16 481.963 553.813 485.16C558.86 489.576 563.965 493.512 573.02 491.163C582.509 488.701 586.316 482.118 588.654 475.389C590.411 470.333 591.838 465.383 591.445 460.995M590.193 452.726C590.193 452.726 592.828 451.46 595.239 451.417C597.65 451.375 591.445 460.995 591.445 460.995M551.293 464.771C551.538 467.051 560.149 467.161 566.374 465.546C569.574 464.716 574.693 465.231 577.588 463.418C574.788 460.629 580.937 457.65 580.799 457.117C580.514 456.019 574.332 455.669 564.475 458.227C562.072 458.85 559.397 458.268 557.706 458.811C555.072 460.666 551.107 463.047 551.293 464.771ZM557.967 463.821C558.953 463.175 561.638 461.697 564.491 460.957C567.345 460.216 570.283 459.714 571.395 459.556C569.748 460.765 566.304 463.142 565.71 462.984C565.115 462.826 560.3 463.476 557.967 463.821Z" stroke="#250F0F" stroke-width="4"/>
</g>
</g>
<g id="Group 2">
<g id="Vector 2_2">
<path d="M1928.76 131C1996.36 107.8 2097.92 133 2140.26 148.5H2151.26V498L1225.76 514.5C1233.26 497.667 1247.76 453.5 1245.76 411.5C1243.26 359 1302.26 324.5 1364.26 313C1426.26 301.5 1514.76 337 1558.76 313C1602.76 289 1620.76 187.5 1683.26 173.5C1733.26 162.3 1805.76 189.167 1835.76 204C1838.59 189.333 1861.16 154.2 1928.76 131Z" fill="#C6E691"/>
<path d="M1944.26 273C1944.26 273 1910.26 282 1898.76 273C1887.58 264.256 1895.47 260.183 1883.76 257C1868.49 252.853 1857.06 283.2 1840.26 278M1770.76 429C1766.76 432.333 1754.06 439 1735.26 439C1716.46 439 1721.62 425.075 1710.26 421.5C1692.65 415.962 1674.96 441.2 1663.76 430M1441.76 390C1436.59 397.333 1420.06 410.7 1395.26 405.5C1370.46 400.3 1381.5 389.255 1369.26 385.5C1352.27 380.291 1346.36 399 1324.76 395M2140.26 148.5C2097.92 133 1996.36 107.8 1928.76 131C1861.16 154.2 1838.59 189.333 1835.76 204C1805.76 189.167 1733.26 162.3 1683.26 173.5C1620.76 187.5 1602.76 289 1558.76 313C1514.76 337 1426.26 301.5 1364.26 313C1302.26 324.5 1243.26 359 1245.76 411.5C1247.76 453.5 1233.26 497.667 1225.76 514.5L2151.26 498V148.5H2140.26Z" stroke="#250F0F" stroke-width="10" stroke-linecap="round"/>
</g>
<g id="Vector 3_2">
<path d="M2056.62 373.425C2055.78 372.237 2052.7 369.087 2051.09 367.709C2050.27 364.057 2042.83 360.023 2039.77 356.76C2035.02 354.548 2029.14 353.861 2024.5 352.182C2018.96 350.176 2012.3 346.344 2006.29 345.22C2003.85 346.121 1995.43 345.692 1993.01 347.557C1993.01 347.557 1990.02 345.823 1987.18 345.47C1984.35 345.118 1990.89 356.542 1990.89 356.542C1990.08 361.345 1991.37 367 1993.03 372.815C1995.25 380.551 1999.21 388.314 2010.17 392.238C2020.63 395.982 2026.94 392.275 2033.22 388.03C2037.77 384.958 2043.28 382.399 2045.67 378.364C2049.55 377.244 2057.47 374.612 2056.62 373.425Z" fill="#AD3737"/>
<path d="M2048.63 372.139C2049.85 371.759 2050.65 371.217 2050.91 370.494C2051.25 369.54 2051.3 368.612 2051.09 367.709M2048.63 372.139C2047.96 374.008 2046.98 376.156 2045.67 378.364M2048.63 372.139C2046.06 372.944 2041.64 373.019 2036.66 372.534C2032.74 376.395 2023.95 370.572 2018.6 368.676C2011.92 366.309 2011.25 372.689 1998.25 358.234C1994.3 358.649 1992.89 353.806 1991.99 351.866M1991.99 351.866C1991.56 350.942 1991.45 350.081 1991.73 349.311C1991.98 348.595 1992.42 348.016 1993.01 347.557M1991.99 351.866C1991.56 353.227 1991.18 354.807 1990.89 356.542M2051.09 367.709C2052.7 369.087 2055.78 372.237 2056.62 373.425C2057.47 374.612 2049.55 377.244 2045.67 378.364M2051.09 367.709C2050.27 364.057 2042.83 360.023 2039.77 356.76C2035.02 354.548 2029.14 353.861 2024.5 352.182C2018.96 350.176 2012.3 346.344 2006.29 345.22C2003.85 346.121 1995.43 345.692 1993.01 347.557M2045.67 378.364C2043.28 382.399 2037.77 384.958 2033.22 388.03C2026.94 392.275 2020.63 395.982 2010.17 392.238C1999.21 388.314 1995.25 380.551 1993.03 372.815C1991.37 367 1990.08 361.345 1990.89 356.542M1993.01 347.557C1993.01 347.557 1990.02 345.823 1987.18 345.47C1984.35 345.118 1990.89 356.542 1990.89 356.542M2037.8 365.802C2037.33 368.292 2027.2 367.323 2020.01 364.749C2016.31 363.426 2010.25 363.347 2006.99 360.976C2010.5 358.246 2003.51 354.174 2003.71 353.601C2004.13 352.423 2011.43 352.819 2022.82 356.895C2025.59 357.889 2028.78 357.584 2030.73 358.398C2033.68 360.783 2038.15 363.918 2037.8 365.802ZM2030.03 363.906C2028.92 363.066 2025.88 361.092 2022.58 359.912C2019.29 358.732 2015.87 357.805 2014.58 357.489C2016.42 359.034 2020.28 362.1 2020.99 362C2021.7 361.9 2027.31 363.229 2030.03 363.906Z" stroke="#250F0F" stroke-width="4"/>
</g>
<g id="Vector 4_2">
<path d="M1902.93 413.002C1901.32 413.325 1896.66 415.049 1894.51 416.073C1890.36 415.249 1882.79 421.058 1878.03 422.709C1873.57 426.582 1870.16 432.322 1866.3 436.33C1861.69 441.121 1854.68 446.22 1850.76 451.894C1850.57 454.816 1846.26 463.301 1847.07 466.641C1847.07 466.641 1843.91 468.933 1842.25 471.688C1840.58 474.443 1855.35 472.958 1855.35 472.958C1859.93 475.997 1866.34 477.269 1873.1 478.223C1882.09 479.493 1891.9 478.983 1900.98 469.494C1909.64 460.438 1908.72 452.233 1907.23 443.812C1906.15 437.716 1906.05 430.871 1902.99 426.555C1903.62 422.038 1904.54 412.68 1902.93 413.002Z" fill="#AD3737"/>
<path d="M1897.94 420.643C1898.11 419.216 1897.92 418.138 1897.29 417.54C1896.47 416.75 1895.53 416.277 1894.51 416.073M1897.94 420.643C1899.56 422.19 1901.32 424.194 1902.99 426.555M1897.94 420.643C1897.58 423.666 1895.63 428.253 1892.85 433.158C1895.02 438.966 1884.99 445.346 1880.58 449.986C1875.07 455.776 1881.34 459.403 1860.48 466.15C1859.09 470.412 1853.45 469.638 1851.04 469.675M1851.04 469.675C1849.89 469.692 1848.95 469.411 1848.29 468.774C1847.67 468.182 1847.27 467.464 1847.07 466.641M1851.04 469.675C1852.25 470.74 1853.7 471.861 1855.35 472.958M1894.51 416.073C1896.66 415.049 1901.32 413.325 1902.93 413.002C1904.54 412.68 1903.62 422.038 1902.99 426.555M1894.51 416.073C1890.36 415.249 1882.79 421.058 1878.03 422.709C1873.57 426.582 1870.16 432.322 1866.3 436.33C1861.69 441.121 1854.68 446.22 1850.76 451.894C1850.57 454.816 1846.26 463.301 1847.07 466.641M1902.99 426.555C1906.05 430.871 1906.15 437.716 1907.23 443.812C1908.72 452.233 1909.64 460.438 1900.98 469.494C1891.9 478.983 1882.09 479.493 1873.1 478.223C1866.34 477.269 1859.93 475.997 1855.35 472.958M1847.07 466.641C1847.07 466.641 1843.91 468.933 1842.25 471.688C1840.58 474.443 1855.35 472.958 1855.35 472.958M1886.44 428.889C1888.79 430.516 1883.13 440.509 1877.18 446.734C1874.12 449.934 1871.25 456.14 1867.31 458.41C1866.12 453.538 1858.71 458.872 1858.21 458.397C1857.19 457.422 1860.95 450.089 1870.38 440.232C1872.68 437.829 1873.83 434.401 1875.56 432.771C1879.37 430.828 1884.66 427.659 1886.44 428.889ZM1880.91 436.025C1879.54 436.781 1876.11 439.006 1873.38 441.859C1870.65 444.713 1868.13 447.805 1867.21 448.994C1869.64 447.807 1874.58 445.237 1874.8 444.458C1875.02 443.68 1878.97 438.512 1880.91 436.025Z" stroke="#250F0F" stroke-width="4"/>
</g>
<g id="Vector 5_2">
<path d="M2091.32 106.049C2089.77 105.491 2084.9 104.553 2082.53 104.312C2079.41 101.464 2069.93 102.51 2065.01 101.455C2059.19 102.458 2053.31 105.6 2047.94 107.028C2041.51 108.735 2032.89 109.467 2026.6 112.289C2024.93 114.688 2016.85 119.708 2015.81 122.984C2015.81 122.984 2011.93 123.306 2009.08 124.799C2006.23 126.293 2019.62 132.668 2019.62 132.668C2021.96 137.633 2026.79 142.04 2032.06 146.352C2039.09 152.089 2047.74 156.732 2060.41 153.319C2072.5 150.061 2075.96 142.573 2079.05 134.606C2081.28 128.838 2084.73 122.933 2084.35 117.661C2087.23 114.127 2092.86 106.606 2091.32 106.049Z" fill="#AD3737"/>
<path d="M2083.09 109.994C2083.98 108.861 2084.37 107.842 2084.15 107.007C2083.85 105.905 2083.3 105.016 2082.53 104.312M2083.09 109.994C2083.68 112.154 2084.14 114.777 2084.35 117.661M2083.09 109.994C2081.23 112.394 2077.18 115.305 2072.27 118.055C2071.12 124.146 2059.24 124.405 2053.07 126.089C2045.37 128.189 2048.84 134.529 2027.52 129.501C2024.13 132.425 2019.72 128.848 2017.64 127.631M2017.64 127.631C2016.65 127.051 2015.99 126.325 2015.75 125.436C2015.53 124.609 2015.56 123.791 2015.81 122.984M2017.64 127.631C2018.12 129.165 2018.78 130.875 2019.62 132.668M2082.53 104.312C2084.9 104.553 2089.77 105.491 2091.32 106.049C2092.86 106.606 2087.23 114.127 2084.35 117.661M2082.53 104.312C2079.41 101.464 2069.93 102.51 2065.01 101.455C2059.19 102.458 2053.31 105.6 2047.94 107.028C2041.51 108.735 2032.89 109.467 2026.6 112.289C2024.93 114.688 2016.85 119.708 2015.81 122.984M2084.35 117.661C2084.73 122.933 2081.28 128.838 2079.05 134.606C2075.96 142.573 2072.5 150.061 2060.41 153.319C2047.74 156.732 2039.09 152.089 2032.06 146.352C2026.79 142.04 2021.96 137.633 2019.62 132.668M2015.81 122.984C2015.81 122.984 2011.93 123.306 2009.08 124.799C2006.23 126.293 2019.62 132.668 2019.62 132.668M2069 111.089C2070.16 113.696 2060.16 119.311 2051.85 121.551C2047.58 122.702 2041.92 126.523 2037.37 126.424C2038.87 121.64 2029.78 122.365 2029.6 121.703C2029.24 120.342 2036.24 116.02 2049.4 112.474C2052.61 111.61 2055.37 109.276 2057.69 108.78C2061.96 109.092 2068.11 109.118 2069 111.089ZM2060.58 114.33C2059.02 114.265 2054.93 114.391 2051.12 115.418C2047.31 116.444 2043.56 117.781 2042.16 118.321C2044.85 118.567 2050.4 118.923 2050.99 118.374C2051.59 117.824 2057.63 115.449 2060.58 114.33Z" stroke="#250F0F" stroke-width="4"/>
</g>
<g id="Vector 6_2">
<path d="M1609.22 287.264C1607.51 286.645 1602.1 285.605 1599.46 285.336C1596.01 282.175 1585.49 283.336 1580.02 282.165C1573.56 283.279 1567.03 286.766 1561.07 288.352C1553.94 290.247 1544.36 291.06 1537.39 294.192C1535.53 296.855 1526.56 302.427 1525.41 306.064C1525.41 306.064 1521.09 306.42 1517.93 308.079C1514.77 309.737 1529.64 316.813 1529.64 316.813C1532.23 322.325 1537.59 327.217 1543.45 332.003C1551.25 338.371 1560.85 343.525 1574.91 339.736C1588.33 336.121 1592.17 327.808 1595.6 318.964C1598.08 312.562 1601.91 306.007 1601.49 300.154C1604.68 296.232 1610.94 287.883 1609.22 287.264Z" fill="#AD3737"/>
<path d="M1600.1 291.644C1601.07 290.387 1601.51 289.255 1601.26 288.328C1600.93 287.105 1600.32 286.118 1599.46 285.336M1600.1 291.644C1600.74 294.042 1601.26 296.954 1601.49 300.154M1600.1 291.644C1598.02 294.308 1593.54 297.539 1588.07 300.592C1586.8 307.354 1573.62 307.641 1566.77 309.51C1558.22 311.842 1562.08 318.879 1538.41 313.298C1534.65 316.544 1529.74 312.572 1527.43 311.221M1527.43 311.221C1526.33 310.578 1525.61 309.773 1525.34 308.785C1525.09 307.867 1525.13 306.959 1525.41 306.064M1527.43 311.221C1527.97 312.925 1528.7 314.822 1529.64 316.813M1599.46 285.336C1602.1 285.605 1607.51 286.645 1609.22 287.264C1610.94 287.883 1604.68 296.232 1601.49 300.154M1599.46 285.336C1596.01 282.175 1585.49 283.336 1580.02 282.165C1573.56 283.279 1567.03 286.766 1561.07 288.352C1553.94 290.247 1544.36 291.06 1537.39 294.192C1535.53 296.855 1526.56 302.427 1525.41 306.064M1601.49 300.154C1601.91 306.007 1598.08 312.562 1595.6 318.964C1592.17 327.808 1588.33 336.121 1574.91 339.736C1560.85 343.525 1551.25 338.371 1543.45 332.003C1537.59 327.217 1532.23 322.325 1529.64 316.813M1525.41 306.064C1525.41 306.064 1521.09 306.42 1517.93 308.079C1514.77 309.737 1529.64 316.813 1529.64 316.813M1584.45 292.86C1585.74 295.753 1574.64 301.987 1565.41 304.472C1560.67 305.75 1554.39 309.992 1549.34 309.882C1551.01 304.571 1540.91 305.376 1540.72 304.642C1540.31 303.131 1548.09 298.333 1562.7 294.397C1566.26 293.437 1569.32 290.848 1571.9 290.296C1576.63 290.642 1583.47 290.672 1584.45 292.86ZM1575.11 296.457C1573.37 296.385 1568.84 296.525 1564.61 297.664C1560.38 298.804 1556.21 300.288 1554.65 300.887C1557.65 301.161 1563.8 301.556 1564.46 300.946C1565.12 300.336 1571.83 297.699 1575.11 296.457Z" stroke="#250F0F" stroke-width="4"/>
</g>
<g id="Vector 7_2">
<path d="M1367.95 480.793C1367.17 479.809 1364.38 477.28 1362.94 476.199C1362.02 473.002 1355.5 470.1 1352.72 467.468C1348.58 465.942 1343.58 465.893 1339.56 464.835C1334.76 463.57 1328.91 460.775 1323.77 460.347C1321.77 461.391 1314.63 461.82 1312.71 463.726C1312.71 463.726 1310.07 462.46 1307.66 462.417C1305.25 462.375 1311.45 471.995 1311.45 471.995C1311.06 476.383 1312.49 481.333 1314.24 486.389C1316.58 493.118 1320.39 499.701 1329.88 502.163C1338.93 504.512 1344.04 500.576 1349.08 496.16C1352.74 492.963 1357.23 490.136 1359 486.283C1362.22 484.904 1368.73 481.778 1367.95 480.793Z" fill="#AD3737"/>
<path d="M1361.13 480.412C1362.13 479.953 1362.78 479.389 1362.95 478.716C1363.18 477.826 1363.17 476.989 1362.94 476.199M1361.13 480.412C1360.68 482.153 1359.97 484.177 1359 486.283M1361.13 480.412C1359 481.383 1355.28 481.877 1351.05 481.923C1347.97 485.766 1340.2 481.39 1335.57 480.205C1329.8 478.727 1329.61 484.517 1317.77 472.801C1314.46 473.556 1312.98 469.346 1312.1 467.692M1312.1 467.692C1311.68 466.905 1311.54 466.142 1311.72 465.425C1311.9 464.758 1312.23 464.196 1312.71 463.726M1312.1 467.692C1311.82 468.955 1311.59 470.41 1311.45 471.995M1362.94 476.199C1364.38 477.28 1367.17 479.809 1367.95 480.793C1368.73 481.778 1362.22 484.904 1359 486.283M1362.94 476.199C1362.02 473.002 1355.5 470.1 1352.72 467.468C1348.58 465.942 1343.58 465.893 1339.56 464.835C1334.76 463.57 1328.91 460.775 1323.77 460.347C1321.77 461.391 1314.63 461.82 1312.71 463.726M1359 486.283C1357.23 490.136 1352.74 492.963 1349.08 496.16C1344.04 500.576 1338.93 504.512 1329.88 502.163C1320.39 499.701 1316.58 493.118 1314.24 486.389C1312.49 481.333 1311.06 476.383 1311.45 471.995M1312.71 463.726C1312.71 463.726 1310.07 462.46 1307.66 462.417C1305.25 462.375 1311.45 471.995 1311.45 471.995M1351.61 475.771C1351.36 478.051 1342.75 478.161 1336.52 476.546C1333.32 475.716 1328.21 476.231 1325.31 474.418C1328.11 471.629 1321.96 468.65 1322.1 468.117C1322.38 467.019 1328.57 466.669 1338.42 469.227C1340.83 469.85 1343.5 469.268 1345.19 469.811C1347.83 471.666 1351.79 474.047 1351.61 475.771ZM1344.93 474.821C1343.94 474.175 1341.26 472.697 1338.41 471.957C1335.55 471.216 1332.61 470.714 1331.5 470.556C1333.15 471.765 1336.59 474.142 1337.19 473.984C1337.78 473.826 1342.6 474.476 1344.93 474.821Z" stroke="#250F0F" stroke-width="4"/>
</g>
</g>
</g>
</g>
<defs>
<clipPath id="clip0_0_1">
<rect width="2172" height="496" fill="white"/>
</clipPath>
</defs>
</svg>
